<svg xmlns="http://www.w3.org/2000/svg" width="1024" height="1024" viewBox="0 0 1024 1024" role="img" aria-label="StashDict app icon">
  <title>StashDict — Open Volume</title>
  <defs>
    <clipPath id="squircle" clipPathUnits="userSpaceOnUse">
      <rect x="0" y="0" width="1024" height="1024" rx="232" ry="232"/>
    </clipPath>

    <!-- mocha leather binding -->
    <linearGradient id="leather" x1="0" y1="0" x2="0" y2="1">
      <stop offset="0" stop-color="#7d6650"/>
      <stop offset=".5" stop-color="#5f4c3a"/>
      <stop offset="1" stop-color="#413325"/>
    </linearGradient>
    <radialGradient id="leatherLight" cx=".5" cy=".18" r=".95">
      <stop offset="0" stop-color="#9a8064" stop-opacity=".5"/>
      <stop offset=".55" stop-color="#9a8064" stop-opacity="0"/>
      <stop offset="1" stop-color="#000" stop-opacity=".26"/>
    </radialGradient>

    <!-- gold foil ramps -->
    <linearGradient id="gold" x1="0" y1="0" x2="1" y2="1">
      <stop offset="0" stop-color="#fbeec0"/>
      <stop offset=".3" stop-color="#e2c477"/>
      <stop offset=".55" stop-color="#b78a3c"/>
      <stop offset="1" stop-color="#7a5824"/>
    </linearGradient>
    <linearGradient id="goldV" x1="0" y1="0" x2="0" y2="1">
      <stop offset="0" stop-color="#6f5526"/>
      <stop offset=".18" stop-color="#caa24f"/>
      <stop offset=".4" stop-color="#f3dd9c"/>
      <stop offset=".62" stop-color="#c79b46"/>
      <stop offset=".85" stop-color="#8c6a2e"/>
      <stop offset="1" stop-color="#6f5526"/>
    </linearGradient>
    <linearGradient id="goldH" x1="0" y1="0" x2="1" y2="0">
      <stop offset="0" stop-color="#6f5526"/>
      <stop offset=".18" stop-color="#caa24f"/>
      <stop offset=".42" stop-color="#f3dd9c"/>
      <stop offset=".62" stop-color="#c79b46"/>
      <stop offset=".85" stop-color="#8c6a2e"/>
      <stop offset="1" stop-color="#6f5526"/>
    </linearGradient>

    <!-- paper -->
    <linearGradient id="paperG" x1="0" y1="0" x2="0" y2="1">
      <stop offset="0" stop-color="#f9f4ea"/>
      <stop offset="1" stop-color="#ebe0ca"/>
    </linearGradient>
    <!-- gutter shadow -->
    <linearGradient id="gutter" x1="0" y1="0" x2="1" y2="0">
      <stop offset="0" stop-color="#b7a37e" stop-opacity="0"/>
      <stop offset=".42" stop-color="#8a7550" stop-opacity=".5"/>
      <stop offset=".5" stop-color="#5d4a31" stop-opacity=".72"/>
      <stop offset=".58" stop-color="#8a7550" stop-opacity=".5"/>
      <stop offset="1" stop-color="#b7a37e" stop-opacity="0"/>
    </linearGradient>
    <!-- ribbon -->
    <linearGradient id="ribbon" x1="0" y1="0" x2="1" y2="0">
      <stop offset="0" stop-color="#5e2622"/>
      <stop offset=".5" stop-color="#9a443a"/>
      <stop offset="1" stop-color="#6e2c26"/>
    </linearGradient>

    <filter id="grain" x="0" y="0" width="100%" height="100%">
      <feTurbulence type="fractalNoise" baseFrequency="0.82" numOctaves="2" stitchTiles="stitch" result="n"/>
      <feColorMatrix in="n" type="matrix" values="0 0 0 0 0  0 0 0 0 0  0 0 0 0 0  0 0 0 .9 0"/>
    </filter>
    <filter id="emboss" x="-30%" y="-30%" width="160%" height="160%">
      <feDropShadow dx="0" dy="7" stdDeviation="7" flood-color="#3a2a12" flood-opacity=".5"/>
    </filter>
    <filter id="pageLift" x="-20%" y="-20%" width="140%" height="140%">
      <feDropShadow dx="0" dy="10" stdDeviation="12" flood-color="#1c140c" flood-opacity=".42"/>
    </filter>
  </defs>

  <!-- Opaque squircle base so PNG export (e.g. App Store / Xcode) has no transparent corners -->
  <rect x="0" y="0" width="1024" height="1024" rx="232" ry="232" fill="#5f4c3a"/>

  <g clip-path="url(#squircle)">
    <!-- binding -->
    <rect width="1024" height="1024" fill="url(#leather)"/>
    <rect width="1024" height="1024" fill="#3a2c1e" opacity=".06" filter="url(#grain)"/>

    <g filter="url(#pageLift)">
      <!-- page-stack thickness (fore-edges + bottom): layered gilt -->
      <rect x="58" y="206" width="908" height="700" rx="12" fill="#7a5d2c"/>
      <rect x="64" y="200" width="896" height="700" rx="11" fill="url(#goldV)"/>
      <!-- fine page striations on the bottom edge -->
      <g stroke="#7a5d2c" stroke-width="2" opacity=".5">
        <line x1="64" y1="882" x2="960" y2="882"/>
        <line x1="64" y1="892" x2="960" y2="892"/>
      </g>

      <!-- the open spread surface -->
      <rect x="72" y="176" width="880" height="700" rx="9" fill="url(#paperG)"/>
    </g>

    <!-- gilt top edge of the open pages -->
    <rect x="72" y="176" width="880" height="14" rx="6" fill="url(#goldH)"/>

    <!-- left page text -->
    <g stroke="#b6a37c" stroke-width="9" stroke-linecap="round" opacity=".5">
      <line x1="138" y1="312" x2="436" y2="312"/>
      <line x1="138" y1="372" x2="472" y2="372"/>
      <line x1="138" y1="432" x2="414" y2="432"/>
      <line x1="138" y1="492" x2="462" y2="492"/>
      <line x1="138" y1="552" x2="398" y2="552"/>
      <line x1="138" y1="612" x2="448" y2="612"/>
      <line x1="138" y1="672" x2="420" y2="672"/>
      <line x1="138" y1="732" x2="384" y2="732"/>
    </g>
    <!-- gold headword (left) + pronunciation tick -->
    <rect x="138" y="238" width="236" height="22" rx="11" fill="url(#gold)"/>
    <rect x="138" y="276" width="120" height="11" rx="5.5" fill="#9a7b3f" opacity=".4"/>

    <!-- right page text -->
    <g stroke="#b6a37c" stroke-width="9" stroke-linecap="round" opacity=".5">
      <line x1="588" y1="312" x2="886" y2="312"/>
      <line x1="588" y1="372" x2="848" y2="372"/>
      <line x1="588" y1="432" x2="892" y2="432"/>
      <line x1="588" y1="492" x2="840" y2="492"/>
      <line x1="588" y1="552" x2="880" y2="552"/>
      <line x1="588" y1="612" x2="828" y2="612"/>
      <line x1="588" y1="672" x2="874" y2="672"/>
      <line x1="588" y1="732" x2="856" y2="732"/>
    </g>
    <rect x="588" y="238" width="206" height="22" rx="11" fill="url(#gold)" opacity=".5"/>
    <rect x="588" y="276" width="104" height="11" rx="5.5" fill="#9a7b3f" opacity=".32"/>

    <!-- center gutter shadow -->
    <rect x="436" y="176" width="152" height="700" fill="url(#gutter)"/>
    <line x1="512" y1="184" x2="512" y2="868" stroke="#4a3a22" stroke-opacity=".35" stroke-width="3"/>

    <!-- ribbon bookmark -->
    <g filter="url(#emboss)">
      <path d="M470 176 h52 v392 l-26 -30 -26 30 Z" fill="url(#ribbon)"/>
      <rect x="470" y="176" width="11" height="392" fill="#fff" opacity=".14"/>
    </g>

    <!-- paper grain over spread + soft top light -->
    <rect x="72" y="176" width="880" height="700" fill="#6a5a3c" opacity=".04" filter="url(#grain)"/>
    <rect width="1024" height="1024" fill="url(#leatherLight)"/>

    <!-- inner edge strokes -->
    <rect width="1024" height="1024" rx="232" fill="none" stroke="#000" stroke-opacity=".18" stroke-width="3"/>
    <rect x="2" y="2" width="1020" height="1020" rx="230" fill="none" stroke="#fff" stroke-opacity=".18" stroke-width="2"/>
  </g>
</svg>
